<?xml version="1.0" encoding="UTF-8"?>
<svg version="1.1" xmlns="http://www.w3.org/2000/svg" width="400" height="400">
<path d="M0 0 C132 0 264 0 400 0 C400 132 400 264 400 400 C268 400 136 400 0 400 C0 268 0 136 0 0 Z " fill="#141414" transform="translate(0,0)"/>
<path d="M0 0 C3.81448747 1.27149582 4.4536898 2.76842289 6.6875 6.0625 C20.4646812 25.39539803 41.92139185 37.39468586 65 42 C86.86965591 45.25952575 106.28003286 41.70540376 126 32 C126.98484375 31.53851563 127.9696875 31.07703125 128.984375 30.6015625 C140.36577189 24.91086406 149.48597259 16.32009596 157.1953125 6.3125 C158.70223977 4.38154558 160.22283036 2.67782475 162 1 C161.42736017 23.12472065 148.11765199 43.90512174 132.51953125 58.8203125 C110.24109139 78.0937535 84.3000358 86.86450571 54.93554688 86.05322266 C53.37930559 86.01042995 51.82241481 85.99158868 50.265625 85.98046875 C38.04878847 85.41175395 22.84317777 80.18290999 14.34765625 71.265625 C7.00646539 62.22456552 2.90175605 51.14538118 0 40 C-0.17950195 39.31703857 -0.35900391 38.63407715 -0.54394531 37.93041992 C-1.88598596 32.45558534 -2.31485355 27.31412494 -2.25 21.6875 C-2.24613281 20.86660889 -2.24226562 20.04571777 -2.23828125 19.19995117 C-2.14605112 12.67018627 -1.42661267 6.38154419 0 0 Z " fill="#F0AE1B" transform="translate(137,214)"/>
<path d="M0 0 C6.06824604 3.44552953 11.91857571 7.19324729 17 12 C17 12.66 17 13.32 17 14 C15.90042969 14.18175781 14.80085938 14.36351562 13.66796875 14.55078125 C-9.89400549 18.52006973 -29.83528388 25.83528388 -47 43 C-47.76957031 43.76957031 -48.53914063 44.53914063 -49.33203125 45.33203125 C-68.52640291 65.57277411 -73.89440086 90.46038699 -73.28515625 117.5078125 C-73.03734111 123.66482619 -72.15437399 129.21276008 -70 135 C-69.57847656 136.14082031 -69.15695313 137.28164063 -68.72265625 138.45703125 C-67.86601908 140.70911794 -66.98929483 142.95374369 -66.0859375 145.1875 C-65.20653624 147.465086 -64.51489991 149.6200182 -64 152 C-78.1191687 146.39335674 -87.95388378 128.13138117 -93.8125 115 C-98.34402153 104.35810103 -101.65491117 93.61799069 -102 82 C-102.02578125 81.31808594 -102.0515625 80.63617188 -102.078125 79.93359375 C-103.05118209 51.5689795 -94.73094927 26.33872817 -75.3984375 5.1484375 C-54.10059367 -17.41402497 -25.59701585 -13.56599202 0 0 Z " fill="#8B2575" transform="translate(202,126)"/>
<path d="M0 0 C2.15761769 1.75847933 4.26726745 3.55557615 6.375 5.375 C7.04660156 5.94476563 7.71820313 6.51453125 8.41015625 7.1015625 C24.41960715 21.86204915 35.65434728 44.64488324 37.125 66.3125 C36.72553252 78.90999239 28.63120435 90.3768423 20.375 99.375 C19.71113281 100.13039063 19.04726563 100.88578125 18.36328125 101.6640625 C8.63526119 112.12932623 -4.4318338 119.17465185 -17.625 124.375 C-18.615 124.375 -19.605 124.375 -20.625 124.375 C-20.19161254 123.01951156 -19.75302005 121.66568724 -19.3125 120.3125 C-19.06886719 119.55839844 -18.82523437 118.80429688 -18.57421875 118.02734375 C-17.625 115.375 -17.625 115.375 -16.15625 112.140625 C-7.32493699 91.73212854 -8.46781317 66.6036665 -16.16796875 46.1171875 C-25.04607429 24.01797333 -42.31554561 4.29665318 -64.40234375 -5.40576172 C-76.0975304 -10.27973664 -87.96615552 -13.55221657 -100.625 -14.625 C-99.625 -16.625 -99.625 -16.625 -96.01953125 -17.87890625 C-94.49452286 -18.32320003 -92.96702922 -18.75902839 -91.4375 -19.1875 C-90.30344727 -19.51911133 -90.30344727 -19.51911133 -89.14648438 -19.85742188 C-58.71448569 -28.59375454 -24.50412861 -19.29526609 0 0 Z " fill="#EB332E" transform="translate(263.625,122.625)"/>
</svg>
