 <svg
              fill="#ff5c00"
              xmlns="http://www.w3.org/2000/svg"
              viewBox="0 0 80 80"
              width="160px"
              height="160px"
            >
              <path
                fill="none"
                stroke="#ff5c00"
                stroke-linecap="round"
                stroke-linejoin="round"
                stroke-miterlimit="10"
                stroke-width="2"
                d="M29,75L29,75c-6.627,0-12-5.373-12-12l0,0c0-6.627,5.373-12,12-12h12v12C41,69.627,35.627,75,29,75z"
              />
              <path
                fill="none"
                stroke="#ff5c00"
                stroke-linecap="round"
                stroke-linejoin="round"
                stroke-miterlimit="10"
                stroke-width="2"
                d="M52.5,28H41V5h11.5C58.851,5,64,10.149,64,16.5l0,0C64,22.851,58.851,28,52.5,28z"
              />
              <path
                fill="none"
                stroke="#ff5c00"
                stroke-linecap="round"
                stroke-linejoin="round"
                stroke-miterlimit="10"
                stroke-width="2"
                d="M29.5,28H41V5H29.5C23.149,5,18,10.149,18,16.5l0,0C18,22.851,23.149,28,29.5,28z"
              />
              <path
                fill="none"
                stroke="#ff5c00"
                stroke-linecap="round"
                stroke-linejoin="round"
                stroke-miterlimit="10"
                stroke-width="2"
                d="M29.5,51H41V28H29.5C23.149,28,18,33.149,18,39.5l0,0C18,45.851,23.149,51,29.5,51z"
              />
              <circle
                cx="53.478"
                cy="40.5"
                r="10.5"
                fill="none"
                stroke="#ff5c00"
                stroke-linecap="round"
                stroke-linejoin="round"
                stroke-miterlimit="10"
                stroke-width="2"
              />
              <path d="M36,57c-0.27,0-0.52-0.101-0.71-0.29C35.1,56.52,35,56.27,35,56c0-0.26,0.11-0.521,0.29-0.71c0.38-0.37,1.04-0.37,1.42,0 C36.89,55.479,37,55.74,37,56c0,0.27-0.1,0.52-0.29,0.71C36.52,56.899,36.27,57,36,57z" />
              <path d="M27.17,70.79L27.17,70.79c-0.54-0.13-0.87-0.67-0.75-1.2l0,0c0.13-0.54,0.67-0.88,1.2-0.75l0,0l0,0l0,0 c0.54,0.13,0.87,0.67,0.75,1.2l0,0c-0.11,0.46-0.52,0.77-0.97,0.77l0,0C27.32,70.81,27.24,70.8,27.17,70.79z" />
              <path d="M30.3,69.95c-0.17-0.521,0.11-1.091,0.63-1.271l0,0l0,0l0,0c0.52-0.18,1.09,0.101,1.27,0.63l0,0 c0.18,0.521-0.1,1.09-0.63,1.26l0,0c-0.1,0.04-0.21,0.061-0.32,0.061l0,0C30.84,70.63,30.45,70.37,30.3,69.95z" />
              <path d="M23.32,68.63c-0.39-0.39-0.39-1.03,0.01-1.42l0,0c0.39-0.391,1.02-0.38,1.41,0.01l0,0c0.39,0.39,0.39,1.03,0,1.42l0,0 c-0.2,0.19-0.45,0.29-0.71,0.29l0,0C23.77,68.93,23.52,68.83,23.32,68.63z" />
              <path d="M33.79,68.2c-0.43-0.351-0.49-0.98-0.14-1.41l0,0c0.35-0.431,0.98-0.49,1.4-0.141l0,0c0.43,0.351,0.49,0.98,0.14,1.41l0,0 c-0.19,0.24-0.48,0.36-0.77,0.36l0,0C34.2,68.42,33.97,68.35,33.79,68.2z" />
              <path d="M35.82,64.87c-0.55-0.07-0.94-0.57-0.87-1.12l0,0c0.07-0.54,0.57-0.931,1.12-0.86l0,0c0.55,0.07,0.94,0.57,0.87,1.12l0,0 c-0.07,0.5-0.5,0.87-0.99,0.87l0,0C35.9,64.88,35.86,64.88,35.82,64.87z" />
              <path d="M35,59.97c0-0.55,0.45-1,1-1l0,0c0.55,0,1,0.45,1,1l0,0c0,0.55-0.45,1-1,1l0,0C35.45,60.97,35,60.52,35,59.97z" />
              <g>
                <path d="M46,11c-0.13,0-0.26-0.03-0.38-0.08c-0.12-0.05-0.23-0.12-0.33-0.21c-0.09-0.101-0.16-0.21-0.21-0.33 C45.03,10.26,45,10.13,45,10c0-0.26,0.11-0.521,0.29-0.71c0.1-0.09,0.21-0.16,0.33-0.21C45.8,9,46,8.979,46.2,9.02 c0.06,0.011,0.12,0.03,0.18,0.061c0.06,0.02,0.12,0.05,0.18,0.09c0.05,0.03,0.1,0.08,0.15,0.12C46.89,9.479,47,9.74,47,10 c0,0.27-0.1,0.52-0.29,0.71c-0.1,0.09-0.21,0.16-0.33,0.21S46.13,11,46,11z" />
                <path d="M58,16.52c0-0.56,0.45-1,1-1l0,0c0.56,0,1,0.45,1,1l0,0c0,0.55-0.45,1-1,1l0,0C58.44,17.52,58,17.069,58,16.52z" />
                <path d="M56.91,13.22c-0.33-0.439-0.23-1.07,0.21-1.4l0,0c0.44-0.329,1.07-0.239,1.4,0.211l0,0c0.33,0.439,0.24,1.069-0.21,1.399 l0,0c-0.18,0.13-0.39,0.19-0.59,0.19l0,0C57.41,13.62,57.11,13.479,56.91,13.22z" />
                <path d="M54.07,11.229c-0.53-0.16-0.83-0.72-0.67-1.25l0,0c0.16-0.529,0.71-0.83,1.24-0.67l0,0c0.53,0.16,0.83,0.721,0.67,1.25 l0,0c-0.13,0.431-0.52,0.71-0.96,0.71l0,0C54.26,11.27,54.17,11.26,54.07,11.229z" />
                <path d="M49.21,10c0-0.55,0.45-1,1-1l0,0c0.55,0,1,0.45,1,1l0,0c0,0.55-0.45,1-1,1l0,0C49.66,11,49.21,10.55,49.21,10z" />
              </g>
              <path d="M51.29,46.62c-0.52-0.181-0.79-0.75-0.6-1.271l0,0c0.18-0.52,0.76-0.8,1.28-0.609l0,0c0.51,0.189,0.79,0.76,0.6,1.279l0,0 c-0.14,0.41-0.53,0.66-0.94,0.66l0,0C51.52,46.68,51.4,46.66,51.29,46.62z M54.45,46.01c-0.19-0.52,0.07-1.1,0.59-1.29l0,0 c0.52-0.189,1.09,0.07,1.28,0.59l0,0c0.2,0.521-0.07,1.09-0.59,1.29l0,0c-0.11,0.04-0.23,0.061-0.34,0.061l0,0 C54.98,46.66,54.6,46.41,54.45,46.01z M57.75,44.1c-0.47-0.28-0.64-0.89-0.36-1.37l0,0c0.27-0.479,0.88-0.64,1.36-0.37l0,0 c0.48,0.28,0.64,0.891,0.37,1.37l0,0c-0.19,0.32-0.52,0.5-0.87,0.5l0,0C58.08,44.229,57.91,44.189,57.75,44.1z M57.91,39.71 L57.91,39.71c-0.1-0.55,0.26-1.07,0.81-1.16l0,0c0.54-0.1,1.06,0.26,1.16,0.81l0,0c0.09,0.54-0.27,1.061-0.81,1.15l0,0 c-0.06,0.01-0.12,0.021-0.18,0.021l0,0C58.42,40.53,57.99,40.189,57.91,39.71z M56.37,37.05c-0.43-0.36-0.48-0.99-0.13-1.41l0,0 c0.35-0.42,0.99-0.479,1.41-0.13l0,0c0.42,0.36,0.48,0.99,0.12,1.41l0,0c-0.19,0.24-0.48,0.36-0.76,0.36l0,0 C56.78,37.28,56.55,37.2,56.37,37.05z" />
            </svg>